<svg width="486" height="429" viewBox="0 0 486 429" fill="none" xmlns="http://www.w3.org/2000/svg">
<path fill-rule="evenodd" clip-rule="evenodd" d="M385.611 172.497C373.132 168.523 360.122 167.589 347.19 166.194C351.311 165.285 355.772 164.07 359.969 163.604C363.831 163.18 366.129 164.771 369.764 166.037C376.252 168.302 383.499 171.054 389.139 173.685C387.97 173.27 386.793 172.874 385.611 172.497ZM367.839 177.462C354.148 174.904 340.131 174.349 326.46 171.674C329.849 170.637 331.77 169.733 335.373 170.076C340.727 170.584 346.146 171.681 351.379 172.846C358.972 174.537 366.634 176.361 374.032 178.76C371.977 178.283 369.912 177.85 367.839 177.462ZM368.497 180.134C367.56 180.513 364.276 179.229 363.215 179C364.237 179.195 367.898 180.376 368.497 180.134ZM341.238 179.853C330.525 179.182 319.682 178.846 308.95 178.902C310.877 178.182 312.717 177.28 314.594 176.438C319.727 174.137 320.619 174.503 325.743 176.015C332.352 177.967 339.123 179.078 345.9 180.208C344.348 180.064 342.793 179.946 341.237 179.854L341.238 179.853ZM328.736 186.031C313.946 187.153 299.356 188.945 284.592 190.598C287.744 189.325 290.775 187.705 293.786 186.14C298.434 183.728 302.003 184.068 307.184 184.066C312.687 184.063 318.093 184.709 323.564 185.331C324.914 185.486 330.199 185.919 328.736 186.031ZM305.947 174.793C313.844 167.125 322.902 159.98 332.183 154.007C338.073 150.216 344.479 145.935 351.401 149.222C339.953 149.698 324.997 160.081 318.221 168.98C317.896 169.401 317.399 169.693 317.06 170.107C315.788 171.651 317.174 171.819 316.308 172.769C316.207 172.881 311.582 174.769 312.196 174.517C309.058 175.811 305.847 176.898 302.705 178.174C303.768 177.029 304.847 175.901 305.948 174.792L305.947 174.793ZM349.996 156.421C342.223 162.921 333.791 166.381 324.43 169.642C332.979 164.144 341.551 159.647 350.948 155.709C350.63 155.946 350.312 156.183 349.996 156.422L349.996 156.421ZM359.667 158.651C361.287 158.132 362.01 158.266 362.371 160.19C358.184 160.031 356.196 160.605 352.24 161.565C354.646 160.423 357.127 159.449 359.667 158.651ZM364.804 159.7C364.513 159.172 364.388 158.164 364.185 157.649C367.293 157.598 369.933 158.255 372.573 159.885C371.699 159.893 365.02 160.664 364.804 159.7L364.804 159.7ZM238.773 231.851C261.494 229.045 283.285 228.312 306.104 230.536C288.913 232.043 271.649 235.498 254.732 238.852C241.15 241.545 227.377 242.999 213.756 245.433C216.28 242.806 218.64 240.023 221.211 237.434C225.677 232.939 232.368 232.652 238.773 231.851ZM316.888 238.542C320.99 238.122 325.082 237.613 329.162 237.015C333.597 236.36 340.671 233.436 345.134 234.317C320.77 241.55 294.441 244.884 269.395 248.96C258.984 250.655 248.385 253.132 238.299 256.275C223.738 260.81 207.314 260.788 193.417 267.159C197.667 262.705 202.322 256.334 207.164 252.712C210.683 250.077 216.521 249.858 220.707 249.305C227.601 248.396 234.528 247.689 241.44 246.945C266.599 244.234 291.719 241.174 316.888 238.542ZM189.477 262.667C187.433 264.917 185.444 267.216 183.51 269.561C187.02 253.101 186.862 235.743 188.839 219.034C189.957 209.586 191.006 200.032 192.509 190.646C193.838 182.358 194.192 171.066 198.636 163.906C201.952 166.986 204.403 170.255 203.744 174.732C202.897 180.49 200.417 186.023 199.264 191.735C197.968 198.154 197.09 204.687 196.289 211.185C195.057 221.179 194.769 231.345 195.297 241.393C195.44 244.218 195.621 247.04 195.841 249.86C195.938 251.09 196.575 253.187 196.304 254.337C195.64 257.165 191.616 260.299 189.477 262.667ZM213.98 194.136C215.928 184.887 217.115 174.141 221.167 165.471C223.415 160.653 225.578 158.938 228.937 164.142C231.335 167.856 227.568 176.008 226.381 180.676C223.014 193.921 221.236 207.511 219.008 220.979C218.427 224.508 218.254 227.998 217.878 231.531C217.565 234.46 217.646 234.286 215.959 236.491C214.874 237.916 213.163 239.126 211.855 240.376C208.426 243.653 204.949 246.887 201.556 250.202C206.719 231.73 210.04 212.882 213.98 194.136ZM468.001 236.144C464.872 231.983 460.904 228.231 456.845 225.015C451.221 220.556 444.335 217.948 438.719 213.66C433.996 210.05 430.095 205.246 425.268 201.59C417.601 195.788 409.709 190.962 400.73 187.476C412.166 191.378 423.133 196.075 432.293 204.172C433.067 204.858 439.777 213.449 441.165 212.628C442.115 212.074 438.089 205.856 437.25 204.407C431.06 193.76 418.357 186.947 408.319 180.108C396.982 172.386 384.603 168.053 371.686 163.782C383.421 164.43 393.308 167.444 403.138 174.047C407.974 177.292 412.447 181.084 417.431 184.098C421.849 186.77 426.093 189.234 429.906 192.82C434.177 196.839 437.608 201.219 440.442 206.353C441.507 208.285 446.709 219.978 446.849 212.55C446.919 208.89 442.296 203.675 440.425 201.03C437.27 196.575 433.611 192.562 429.781 188.682C423.266 182.088 417.048 175.244 409.315 170.041C404.917 167.08 400.311 164.735 395.279 163.044C391.393 161.736 387.404 160.798 383.326 160.336C379.454 159.898 379.081 159.944 376 157.944C373.352 156.223 371.092 154.382 368.129 153.155C365.11 151.903 362.54 151.724 360.294 150.016C357.644 147.997 356.617 145.629 353.197 144.365C350.053 143.202 346.837 143.458 343.557 143.72C332.709 144.584 321.696 147.334 312.722 153.75C304.791 159.422 299.398 168.473 295.564 177.298C293.447 182.167 294.884 181.984 289.199 184.783C283.222 187.727 277.28 190.619 271.465 193.903C281.052 181.986 289.388 168.792 299.899 157.624C305.519 151.659 311.031 145.596 316.65 139.634C318.309 137.877 331.411 125.223 324.052 125.671C322.35 125.774 319.791 128.049 318.227 128.795C315.106 130.293 312.007 131.621 309.122 133.578C304.122 136.972 300.04 141.194 295.95 145.585C285.357 156.96 275.809 169.126 270.921 184.061C269.763 187.595 269.34 191.579 267.527 194.822C266.249 197.11 264.749 197.9 262.155 199.59C257.706 202.483 253.382 205.458 249.169 208.693C259.942 192.738 266.891 174.883 275.379 157.704C286.297 135.616 291.292 110.826 300.475 88.0043C302.256 83.5777 304.426 78.7067 307.415 74.9389C308.324 73.793 311.197 72.0752 311.448 70.6304C312.111 66.819 309.53 67.8423 307.634 68.9384C302.989 71.6234 298.479 77.6799 295.305 81.7623C290.685 87.7003 286.007 94.1418 282.005 100.54C268.22 122.574 259.081 147.58 251.489 172.329C247.917 183.963 244.233 195.789 242.476 207.854C241.628 213.679 242.591 213.835 237.724 217.822C232.641 221.988 227.783 226.408 222.74 230.615C227.336 221.178 230.075 209.475 233.392 199.463C236.864 188.975 240.813 178.645 244.342 168.173C250.082 151.132 254.378 133.685 258.51 116.201C260.705 106.905 262.762 97.6018 264.643 88.2405C267.061 76.2107 269.52 62.32 274.912 51.2231C275.717 49.5727 278.984 41.9044 274.256 44.5456C272.09 45.753 269.523 53.6547 268.417 55.7851C262.153 67.8843 256.877 80.1694 252.162 92.9457C243.805 115.6 237.94 138.815 231.319 161.981C228.009 157.462 221.136 152.487 215.197 154.41C209.863 156.139 207.239 163.732 205.561 168.489C205.375 165.198 201.337 159.06 198.19 158.85C196.401 158.73 193.319 160.425 191.823 161.132C188.126 162.88 183.926 165.092 181.619 168.533C176.893 175.591 177.79 186.67 176.95 194.839C174.449 219.203 174.897 242.727 177.651 266.991C178.28 272.543 179.041 275.119 175.882 279.495C172.274 284.495 168.795 289.411 165.243 294.105C166.384 291.931 165.353 285.286 165.34 282.968C165.303 276.758 165.366 270.601 165.689 264.396C166.35 251.616 165.664 238.408 165.021 225.62C163.695 199.272 163.815 173.26 164.704 146.919C164.89 141.368 164.765 135.852 164.731 130.304C164.717 128.014 165.474 122.403 161.837 123.744C160.78 124.133 160.003 128.23 159.696 129.269C156.862 138.846 155.973 149.207 154.675 159.043C153.496 167.989 152.418 176.95 151.671 185.94C150.235 203.211 150.709 219.982 150.796 237.282C150.87 251.533 152.415 267.026 155.049 280.173C156.285 286.339 158.432 293.001 159.057 299.215C159.437 302.957 157.247 304.344 154.732 307.742C152.187 311.178 149.674 314.641 147.245 318.16C147.479 312.768 145.943 307.193 145.582 301.797C145.28 297.289 144.993 292.804 144.587 288.301C144.264 284.755 143.96 281.205 143.646 277.656C142.027 259.387 140.445 241.159 137.456 223.058C132.861 195.262 127.848 166.696 128.034 138.419C128.071 133.022 128.245 127.629 128.307 122.231C128.353 118.162 127.979 114.126 127.956 110.063C127.943 107.991 128.887 103.984 128.196 101.92C126.197 95.9457 124.464 102.621 124.409 105.364C124.381 106.81 124.294 108.251 124.272 109.696C124.138 118.775 123.357 127.73 122.908 136.799C122.265 149.875 122.84 162.886 123.274 175.956C123.748 190.193 123.392 204.528 124.922 218.713C126.896 236.996 130.849 255.174 133.33 273.409C134.409 281.35 135.915 289.204 136.732 297.182C137.494 304.639 140.141 311.969 141.753 318.857L141.744 318.329C142.368 321.257 143.349 322.72 142.459 325.407C141.832 327.294 140.111 329.278 139.08 331.012C136.882 334.7 134.772 338.431 132.661 342.169C134.532 332.681 131.996 320.71 129.989 311.39C127.771 301.078 125.067 290.516 121.902 280.459C119.441 272.638 117.404 264.95 116.661 256.809C115.671 245.967 112.722 235.54 111.137 224.799C109.641 214.657 107.123 204.615 104.976 194.576C104.492 192.316 102.334 181.506 98.8224 186.382C97.9566 187.585 99.0178 190.78 99.1538 192.024C99.488 195.104 99.6962 198.135 99.8345 201.227C100.731 220.858 104.842 240.786 108.064 260.128C110.123 272.486 112.304 284.889 115.313 297.052C117.656 306.522 118.922 316.361 121.521 325.698C122.768 330.177 124.035 334.755 126.027 338.96C127.76 342.62 129.508 343.642 128.896 347.586C128.021 353.224 123.22 359.077 121.054 364.536C119.283 368.999 117.476 373.47 115.788 377.964C113.43 384.26 111.22 390.666 109.151 397.061C107.95 400.765 105.621 405.546 105.403 409.313C105.071 415.035 108.309 413.398 110.01 409.571C111.154 406.995 112.068 404.224 113.144 401.605C121.04 382.414 128.269 361.838 140.059 344.619C144.977 337.428 158.571 335.695 166.547 333.188C185.735 327.149 206.492 326.353 226.401 324.146C242.455 322.37 258.248 320.736 273.965 316.788C276.26 316.213 318.153 303.879 317.102 301.728C317.689 302.935 271.27 313.265 267.553 313.57C255.896 314.52 244.275 314.775 232.593 315.269C203.37 316.506 174.627 317.208 148.075 331.015C151.425 325.745 155.433 315.797 161.315 313.756C172.651 309.818 184.598 307.275 196.018 303.435C207.89 299.449 220.082 296.779 232.023 293.085C243.951 289.395 255.853 285.572 267.962 282.469C280.134 279.35 292.708 276.1 305.356 276.501C310.224 276.656 315.106 277.087 319.953 277.545C321.784 277.718 336.355 280.412 328.476 277.066C323.374 274.897 316.694 274.73 311.228 273.934C304.961 273.024 298.953 272.216 292.618 272.266C278.824 272.372 264.967 275.606 251.634 278.807C235.677 282.634 219.065 286.432 203.832 292.591C189.872 298.236 175.84 303.656 161.879 309.231C164.418 305.345 167.118 301.576 169.759 297.759C171.042 295.902 172.395 292.889 174.217 291.621C176.996 289.684 182.845 289.181 186.074 288.106C199.064 283.787 212.114 278.714 225.425 275.501C246.828 270.333 268.74 267.128 290.275 262.529C302.844 259.848 316.153 257.482 329.004 257.71C333.838 257.798 338.679 257.622 343.425 258.643C345.104 259.003 347.218 259.933 348.948 260.129C354.122 260.709 350.283 258.22 347.144 257.132C322.265 248.519 294.842 255.405 269.764 258.91C253.179 261.225 236.805 263.587 220.97 269.292C206.379 274.547 192.429 281.556 177.595 286.171C181.483 280.646 184.949 274.925 191.161 271.885C198.035 268.524 205.28 267.062 212.782 265.788C228.379 263.13 243.872 259.728 259.519 257.413C273.894 255.29 288.242 253.406 302.491 250.508C316.364 247.682 330.157 246.031 343.398 240.691C347.59 239 352.673 236.069 357.149 235.813C362.951 235.482 369.976 237.22 375.665 238.082C389.521 240.177 403.904 242.337 416.713 248.202C429.281 253.958 437.815 263.004 447.436 272.461C450.467 275.445 453.45 278.479 456.472 281.471C457.145 282.138 461.162 287.146 461.99 287.21C467.114 287.594 457.448 277.438 455.78 275.357C444.253 260.976 431.779 248.982 414.821 241.147C400.369 234.469 385.26 230.126 369.5 227.902C369.54 225.053 381.151 224.911 381.47 221.96C381.891 218.025 373.766 221.963 372.156 222.447C369.098 223.365 366.124 224.513 363.051 225.382C355.996 227.376 348.189 224.92 341.022 224C332.38 222.896 323.625 222.172 314.934 221.649C286.164 219.914 258.56 220.868 230.615 228.577C235.63 224.185 240.861 220.011 246.161 215.969C248.224 214.396 249.797 212.955 252.135 212.217C256.083 210.97 260.771 211.527 264.887 211.124C281.159 209.537 297.357 207.753 313.719 207.251C340.645 206.425 368.72 211.258 394.256 219.818C406.713 223.996 418.935 228.059 429.753 235.749C432.257 237.527 434.484 239.568 436.76 241.623C437.701 242.472 443.446 248.649 443.738 248.616C446.229 248.35 434.676 235.565 432.997 233.932C410.435 212.003 381.16 207.018 351.267 202.615C320.007 198.009 288.631 200.455 257.834 207.404C263.984 203.567 270.028 196.991 276.932 194.76C282.176 193.064 288.832 193.386 294.138 192.842C309.526 191.26 325.655 193.947 341.076 195.039C358.497 196.271 375.42 198.506 392.263 203.147C400.881 205.522 409.274 208.035 417.682 211.119C424.346 213.563 429.783 215.068 435.175 219.534C437.35 221.352 443.82 226.18 447.321 229.462C448.749 230.803 450.228 233.635 451.842 234.309C457.854 236.817 449.875 227.021 448.565 225.321C453.344 228.176 457.805 231.482 462.048 235.002C462.887 235.7 463.69 236.233 464.54 236.87C465.538 237.621 466.06 239.812 467.768 239.082C469.159 238.484 468.665 237.051 468.001 236.144Z" fill="#012A32"/>
</svg>
